/* XPM */
static char *result[] = {
/* columns rows colors chars-per-pixel */
"64 64 17 1 ",
"  c #C0D470",
". c #6B4B5B",
"X c #754C60",
"o c #90625D",
"O c #AA7959",
"+ c #B09643",
"@ c #BFA954",
"# c #B68962",
"$ c #C49A6C",
"% c #D4C169",
"& c #EAE178",
"* c #DCB98A",
"= c #F4F4A0",
"2 c #78A158",
"5 c #A4C263",
"3 c #C0D470",
"4 c #9BD4C3",
/* pixels */
"4444444444442222222222222222222222222222222222222222444444444444",
"4444444444442222222222222222222222222222222222222222444444444444",
"4444442222222222225555555522225555555555555555222222222222444444",
"4444442222222222225555555522225555555555555555222222222222444444",
"4444222255555555555555555555555555555555555555555555552222224444",
"4444222255555555555555555555555555555555555555555555552222224444",
"4422225555555555555555555555555533333333555555555555555555222244",
"4422225555555555555555555555555533333333555555555555555555222244",
"4422555555555555335533335533333333333333553355555555555555222244",
"4422555555555555335533335533333333333333553355555555555555222244",
"4422225555555533333333333333335533333333333333335533555555222244",
"4422225555555533333333333333335533333333333333335533555555222244",
"2222225555553333333333333333333333333333333333333333335555552222",
"2222225555553333333333333333333333333333333333333333335555552222",
"2222555555333333333333333333333333333333333333333333333355552222",
"2222555555333333333333333333333333333333333333333333333355552222",
"2222555555553333333333333333333333333333553333333333333355555522",
"2222555555553333333333333333333333333333553333333333333355555522",
"22555555333333333333oooo3333333333333333oooo33333355333355555522",
"22555555333333333333oooo3333333333333333oooo33333355333355555522",
"225555553333333333oo%%%%oooooooooooooooo%%%%oo333333333333552222",
"225555553333333333oo%%%%oooooooooooooooo%%%%oo333333333333552222",
"2255555533553333oo&&&&&&$$************$$&&&&&&oo3333333355552222",
"2255555533553333oo&&&&&&$$************$$&&&&&&oo3333333355552222",
"2255553333333333oo&&&&$$$$$$********$$$$$$&&&&oo3333333333555522",
"2255553333333333oo&&&&$$$$$$********$$$$$$&&&&oo3333333333555522",
"2255553333333333oo&&&&$$$$$$$$$$$$$$$$$$$$&&&&oo3333333333555522",
"2255553333333333oo&&&&$$$$$$$$$$$$$$$$$$$$&&&&oo3333333333555522",
"2255553333553333oo&&&&$$$$$$$$$$$$$$$$$$$$&&&&oo3333333333555522",
"2255553333553333oo&&&&$$$$$$$$$$$$$$$$$$$$&&&&oo3333333333555522",
"2255555555333355oo==&&&&&&&&&&&&&&&&&&&&&&&&==oo3333333355552222",
"2255555555333355oo==&&&&&&&&&&&&&&&&&&&&&&&&==oo3333333355552222",
"2255555533333333oo++========================++oo3355333333552222",
"2255555533333333oo++========================++oo3355333333552222",
"2255555533333333oo@@++oooooooo&&%%oooooooo++@@oo3333333333555522",
"2255555533333333oo@@++oooooooo&&%%oooooooo++@@oo3333333333555522",
"2255553333333333oo@@@@OOOOOOOO%%%%OOOOOOOO@@@@oo3333333355552222",
"2255553333333333oo@@@@OOOOOOOO%%%%OOOOOOOO@@@@oo3333333355552222",
"2255555533333333oo%%@@OOOOOOOOOOOOOOOOOOOO@@%%oo3333333355552222",
"2255555533333333oo%%@@OOOOOOOOOOOOOOOOOOOO@@%%oo3333333355552222",
"2222555555333333oo%%%%OOOOOOOOOOOOOOOOOOOO%%%%oo3333335555555522",
"2222555555333333oo%%%%OOOOOOOOOOOOOOOOOOOO%%%%oo3333335555555522",
"222255553333333333oo%%%%%%%%%%%%%%%%%%%%%%%%oo333333333355555522",
"222255553333333333oo%%%%%%%%%%%%%%%%%%%%%%%%oo333333333355555522",
"22555555553333333333oooooooooooooooooooooooo33333333335555555522",
"22555555553333333333oooooooooooooooooooooooo33333333335555555522",
"2255555533333333333333333333333333333333333333333333333355552222",
"2255555533333333333333333333333333333333333333333333333355552222",
"2222555533333333333333333333553333333333333333333333333355552222",
"2222555533333333333333333333553333333333333333333333333355552222",
"2222555555553333333333333333333333333333335533335533335555552222",
"2222555555553333333333333333333333333333335533335533335555552222",
"4422555555333333335533333333333333333333333333333333335555222244",
"4422555555333333335533333333333333333333333333333333335555222244",
"4422225555553333553333335533335533333333333333333333555555222244",
"4422225555553333553333335533335533333333333333333333555555222244",
"4422225555555555555555335555555555333333553333555555555555222244",
"4422225555555555555555335555555555333333553333555555555555222244",
"4444222255555555555555555555555555555555555555555555555522224444",
"4444222255555555555555555555555555555555555555555555555522224444",
"4444442222222222225555552222225555555555222255552222222222444444",
"4444442222222222225555552222225555555555222255552222222222444444",
"4444444444442222222222222222222222222222222222222222444444444444",
"4444444444442222222222222222222222222222222222222222444444444444"
};
