/* XPM */
static char *result[] = {
/* columns rows colors chars-per-pixel */
"64 64 17 1 ",
"  c #D6E45A",
". c #7A5B3A",
"X c #8A5C40",
"o c #A46F3C",
"O c #C48733",
"+ c #D2B038",
"@ c #E5C94B",
"# c #C6983F",
"$ c #D8A851",
"% c #EED354",
"& c #FFF066",
"* c #EAC46F",
"= c #FFFF88",
"2 c #78A158",
"5 c #A4C263",
"3 c #C0D470",
"4 c #9BD4C3",
/* pixels */
"4444444444442222222222222222222222222222222222222222444444444444",
"4444444444442222222222222222222222222222222222222222444444444444",
"4444442222222222225555555522225555555555555555222222222222444444",
"4444442222222222225555555522225555555555555555222222222222444444",
"4444222255555555555555555555555555555555555555555555552222224444",
"4444222255555555555555555555555555555555555555555555552222224444",
"4422225555555555555555555555555533333333555555555555555555222244",
"4422225555555555555555555555555533333333555555555555555555222244",
"4422555555555555335533335533333333333333553355555555555555222244",
"4422555555555555335533335533333333333333553355555555555555222244",
"4422225555555533333333333333335533333333333333335533555555222244",
"4422225555555533333333333333335533333333333333335533555555222244",
"2222225555553333333333333333333333333333333333333333335555552222",
"2222225555553333333333333333333333333333333333333333335555552222",
"2222555555333333333333333333333333333333333333333333333355552222",
"2222555555333333333333333333333333333333333333333333333355552222",
"2222555555553333333333333333333333333333553333333333333355555522",
"2222555555553333333333333333333333333333553333333333333355555522",
"2255555533333333333333333333333333333333333333333355333355555522",
"2255555533333333333333333333333333333333333333333355333355555522",
"225555553333333333oooo33333333333333333333oooo333333333333552222",
"225555553333333333oooo33333333333333333333oooo333333333333552222",
"2255555533553333oo%%%%oooooooooooooooooooo%%%%oo3333333355552222",
"2255555533553333oo%%%%oooooooooooooooooooo%%%%oo3333333355552222",
"22555533333333oo&&&&&&$$****************$$&&&&&&oo33333333555522",
"22555533333333oo&&&&&&$$****************$$&&&&&&oo33333333555522",
"22555533333333oo&&&&$$$$$$$$********$$$$$$$$&&&&oo33333333555522",
"22555533333333oo&&&&$$$$$$$$********$$$$$$$$&&&&oo33333333555522",
"22555533335533oo&&&&$$$$$$$$$$$$$$$$$$$$$$$$&&&&oo33333333555522",
"22555533335533oo&&&&$$$$$$$$$$$$$$$$$$$$$$$$&&&&oo33333333555522",
"22555555553333oo&&&&$$$$$$$$$$$$$$$$$$$$$$$$&&&&oo33333355552222",
"22555555553333oo&&&&$$$$$$$$$$$$$$$$$$$$$$$$&&&&oo33333355552222",
"22555555333333oo==&&&&&&&&&&&&&&&&&&&&&&&&&&&&==oo55333333552222",
"22555555333333oo==&&&&&&&&&&&&&&&&&&&&&&&&&&&&==oo55333333552222",
"22555555333333oo++============================++oo33333333555522",
"22555555333333oo++============================++oo33333333555522",
"22555533333333oo@@++oooooooooo&&%%oooooooooo++@@oo33333355552222",
"22555533333333oo@@++oooooooooo&&%%oooooooooo++@@oo33333355552222",
"22555555333333oo@@@@OOOOOOOOOO%%%%OOOOOOOOOO@@@@oo33333355552222",
"22555555333333oo@@@@OOOOOOOOOO%%%%OOOOOOOOOO@@@@oo33333355552222",
"22225555553333oo%%@@OOOOOOOOOOOOOOOOOOOOOOOO@@%%oo33335555555522",
"22225555553333oo%%@@OOOOOOOOOOOOOOOOOOOOOOOO@@%%oo33335555555522",
"2222555533333333oo%%%%%%%%%%%%%%%%%%%%%%%%%%%%oo3333333355555522",
"2222555533333333oo%%%%%%%%%%%%%%%%%%%%%%%%%%%%oo3333333355555522",
"225555555533333333oooooooooooooooooooooooooooo333333335555555522",
"225555555533333333oooooooooooooooooooooooooooo333333335555555522",
"2255555533333333333333333333333333333333333333333333333355552222",
"2255555533333333333333333333333333333333333333333333333355552222",
"2222555533333333333333333333553333333333333333333333333355552222",
"2222555533333333333333333333553333333333333333333333333355552222",
"2222555555553333333333333333333333333333335533335533335555552222",
"2222555555553333333333333333333333333333335533335533335555552222",
"4422555555333333335533333333333333333333333333333333335555222244",
"4422555555333333335533333333333333333333333333333333335555222244",
"4422225555553333553333335533335533333333333333333333555555222244",
"4422225555553333553333335533335533333333333333333333555555222244",
"4422225555555555555555335555555555333333553333555555555555222244",
"4422225555555555555555335555555555333333553333555555555555222244",
"4444222255555555555555555555555555555555555555555555555522224444",
"4444222255555555555555555555555555555555555555555555555522224444",
"4444442222222222225555552222225555555555222255552222222222444444",
"4444442222222222225555552222225555555555222255552222222222444444",
"4444444444442222222222222222222222222222222222222222444444444444",
"4444444444442222222222222222222222222222222222222222444444444444"
};