/* XPM */
static char *result[] = {
/* columns rows colors chars-per-pixel */
"24 24 13 1 ",
"  c None",
". c #6B4B5B",
"X c #754C60",
"o c #90625D",
"O c #AA7959",
"+ c #B09643",
"@ c #BFA954",
"# c #B68962",
"$ c #C49A6C",
"% c #D4C169",
"& c #EAE178",
"* c #DCB98A",
"= c #F4F4A0",
/* pixels */
"                        ",
"                        ",
"      oooooooooooo      ",
"     o&&&&&&&&&&&&o     ",
"    o&%%%%%%%%%%%%&o    ",
"    o%%oooooooooo%%o    ",
"    o%oooOOOOOOooo%o    ",
"    o%ooooOOOOoooo%o    ",
"    o%oooooooooooo%o    ",
"     o%oooooooooo%o     ",
"    o++..........++o    ",
"    o+............+o    ",
"    o+............+o    ",
"    o+............+o    ",
"    o++..........++o    ",
"    o@++++++++++++@o    ",
"    o%@oooooooooo@%o    ",
"    o%%OOOOOOOOOO%%o    ",
"    o%%OOOOOOOOOO%%o    ",
"    o%%OOOOOOOOOO%%o    ",
"     o%%%%%%%%%%%%o     ",
"      oooooooooooo      ",
"                        ",
"                        "
};