/* XPM */
static char *result[] = {
/* columns rows colors chars-per-pixel */
"32 32 17 1 ",
"  c #C0D470",
". c #6B4B5B",
"X c #754C60",
"o c #90625D",
"O c #AA7959",
"+ c #B09643",
"@ c #BFA954",
"# c #B68962",
"$ c #C49A6C",
"% c #D4C169",
"& c #EAE178",
"* c #DCB98A",
"= c #F4F4A0",
"2 c #78A158",
"5 c #A4C263",
"3 c #C0D470",
"4 c #9BD4C3",
/* pixels */
"44444422222222222222222222444444",
"44422222255552255555555222222444",
"44225555555555555555555555522244",
"42255555555555553333555555555224",
"42555555353353333333535555555224",
"42255553333333353333333353555224",
"22255533333333333333333333355522",
"22555333333333333333333333335522",
"22555533333333333333533333335552",
"2555333333oo33333333oo3335335552",
"255533333o%%oooooooo%%o333333522",
"25553533o&&&$******$&&&o33335522",
"25533333o&&$$$****$$$&&o33333552",
"25533333o&&$$$$$$$$$$&&o33333552",
"25533533o&&$$$$$$$$$$&&o33333552",
"25555335o=&&&&&&&&&&&&=o33335522",
"25553333o+============+o35333522",
"25553333o@+oooo&%oooo+@o33333552",
"25533333o@@OOOO%%OOOO@@o33335522",
"25553333o%@OOOOOOOOOO@%o33335522",
"22555333o%%OOOOOOOOOO%%o33355552",
"225533333o%%%%%%%%%%%%o333335552",
"2555533333oooooooooooo3333355552",
"25553333333333333333333333335522",
"22553333333333533333333333335522",
"22555533333333333333353353355522",
"42555333353333333333333333355224",
"42255533533353353333333333555224",
"42255555555355555333533555555224",
"44225555555555555555555555552244",
"44422222255522255555225522222444",
"44444422222222222222222222444444"
};