/* XPM */
static char *result[] = {
/* columns rows colors chars-per-pixel */
"64 64 12 1 ",
"  c None",
". c #754C60",
"X c #90625D",
"o c #BE9F8A",
"O c #D99A9A",
"+ c #DCB98A",
"@ c #E8B5AC",
"# c #F3E5C2",
"2 c #78A158",
"5 c #A4C263",
"3 c #C0D470",
"4 c #9BD4C3",
/* pixels */
"4444444444442222222222222222222222222222222222222222444444444444",
"4444444444442222222222222222222222222222222222222222444444444444",
"4444442222222222225555555522225555555555555555222222222222444444",
"4444442222222222225555555522225555555555555555222222222222444444",
"4444222255555555555555555555555555555555555555555555552222224444",
"4444222255555555555555555555555555555555555555555555552222224444",
"4422225555555555555555555555555533333333555555555555555555222244",
"4422225555555555555555555555555533333333555555555555555555222244",
"4422555555555555335533335533333333333333553355555555555555222244",
"4422555555555555335533335533333333333333553355555555555555222244",
"4422225555555533333333333333335533333333333333335533555555222244",
"4422225555555533333333333333335533333333333333335533555555222244",
"2222225555553333333333333333333333333333333333333333335555552222",
"2222225555553333333333333333333333333333333333333333335555552222",
"2222555555333333333333333333333333333333333333333333333355552222",
"2222555555333333333333333333333333333333333333333333333355552222",
"2222555555553333333333333333333333333333553333333333333355555522",
"2222555555553333333333333333333333333333553333333333333355555522",
"2255555533333333333333333333333333XXXX3333XXXX333333335555555522",
"2255555533333333333333333333333333XXXX3333XXXX333333335555555522",
"22555555333333333333333333333333XX##XX3333XX##XX3333333355552222",
"22555555333333333333333333333333XX##XX3333XX##XX3333333355552222",
"22555533333333333333333333XXXX33XX##XXXXXXXX##XX3333XXXX33552222",
"22555533333333333333333333XXXX33XX##XXXXXXXX##XX3333XXXX33552222",
"2255553333333333XXXXXXXXXX####XXXX++++++++++####XXXX####XX555522",
"2255553333333333XXXXXXXXXX####XXXX++++++++++####XXXX####XX555522",
"225555333333XXXX++++++##XX########++++++++++######XX####XX555522",
"225555333333XXXX++++++##XX########++++++++++######XX####XX555522",
"225555333333++++++++++##XX@@@@##++++++..++####..##XX@@@@XX555522",
"225555333333++++++++++##XX@@@@##++++++..++####..##XX@@@@XX555522",
"2255553333XX++++++++######XXXXXX++++++..######..####XXXX55552222",
"2255553333XX++++++++######XXXXXX++++++..######..####XXXX55552222",
"22555533XXXX++++####################################XX5555552222",
"22555533XXXX++++####################################XX5555552222",
"225555XX++XX############++++############@@@@@@@@@@@@XX3355555522",
"225555XX++XX############++++############@@@@@@@@@@@@XX3355555522",
"2255XX++XXXX##########++++++++##XX####@@@@OO@@@@OO@@XX3355552222",
"2255XX++XXXX##########++++++++##XX####@@@@OO@@@@OO@@XX3355552222",
"2255XXXX33XX############++++######XX##@@@@@@@@@@@@@@XX5555552222",
"2255XXXX33XX############++++######XX##@@@@@@@@@@@@@@XX5555552222",
"2222553333XX++++++++##############++XXXXXXXXXXXXXXXX335555555522",
"2222553333XX++++++++##############++XXXXXXXXXXXXXXXX335555555522",
"22223333XX++++++++++++++++++++++++++++XX333333333333333355555522",
"22223333XX++++++++++++++++++++++++++++XX333333333333333355555522",
"225555XX++++++XXXXXXXXXXXXXXXXXXXX++++++XX3333333333333355555522",
"225555XX++++++XXXXXXXXXXXXXXXXXXXX++++++XX3333333333333355555522",
"225555XX++++XX3333XXooooXX33XXooooXX++++XX3333333333335555552222",
"225555XX++++XX3333XXooooXX33XXooooXX++++XX3333333333335555552222",
"22225533XXXX33333333XXXX333333XXXX33XXXX333333333333335555552222",
"22225533XXXX33333333XXXX333333XXXX33XXXX333333333333335555552222",
"2222555555553333333333333333333333333333335533335533335555552222",
"2222555555553333333333333333333333333333335533335533335555552222",
"4422555555333333335533333333333333333333333333333333335555222244",
"4422555555333333335533333333333333333333333333333333335555222244",
"4422225555553333553333335533335533333333333333333333555555222244",
"4422225555553333553333335533335533333333333333333333555555222244",
"4422225555555555555555335555555555333333553333555555555555222244",
"4422225555555555555555335555555555333333553333555555555555222244",
"4444222255555555555555555555555555555555555555555555555522224444",
"4444222255555555555555555555555555555555555555555555555522224444",
"4444442222222222225555552222225555555555222255552222222222444444",
"4444442222222222225555552222225555555555222255552222222222444444",
"4444444444442222222222222222222222222222222222222222444444444444",
"4444444444442222222222222222222222222222222222222222444444444444"
};