/* XPM */
static char *result[] = {
/* columns rows colors chars-per-pixel */
"32 32 8 1 ",
"  c None",
". c #754C60",
"X c #90625D",
"o c #BE9F8A",
"O c #D99A9A",
"+ c #DCB98A",
"@ c #E8B5AC",
"# c #F3E5C2",
/* pixels */
"                                ",
"                                ",
"                                ",
"                                ",
"                                ",
"                                ",
"                                ",
"                                ",
"                                ",
"                 XX  XX         ",
"                X#X  X#X        ",
"             XX X#XXXX#X  XX    ",
"        XXXXX##XX+++++##XX##X   ",
"      XX+++#X####+++++###X##X   ",
"     X+++++#X@@#+++.+##.#X@@X   ",
"     X++++###XXX+++.###.##XX    ",
"    XX++##################X     ",
"   X+X######++######@@@@@@X     ",
"  X+XX#####++++#X##@@O@@O@X     ",
"  XX X######++###X#@@@@@@@X     ",
"     X++++#######+XXXXXXXX      ",
"    X++++++++++++++X            ",
"   X+++XXXXXXXXXX+++X           ",
"   X++X  XooX XooX++X           ",
"    XX    XX   XX XX            ",
"                                ",
"                                ",
"                                ",
"                                ",
"                                ",
"                                ",
"                                "
};
