/* XPM */
static char *result[] = {
/* columns rows colors chars-per-pixel */
"32 32 10 1 ",
"2 c #78A158",
"5 c #A4C263",
"3 c #C0D470",
"4 c #9BD4C3",
". c #90625D",
"X c #AA7959",
"o c #E8CFA6",
"O c #F3E5C2",
"+ c #F3F2C0",
"@ c #90625D",
/* pixels */
"44444422222222222222222222444444",
"44422222255552255555555222222444",
"44225555555555555555555555522244",
"42255555555555553333555555555224",
"42555555353353333333535555555224",
"42255553333333353333333353555224",
"22255533333333333333333333355522",
"22555333333333333333333333335522",
"22555533333333333333533333335552",
"25553333333333@@@@33333335335552",
"2555333333333@XXXX@3333333333522",
"255535333333@X++++X@333333335522",
"25533333333@X++O@++.@33333333552",
"2553333333@X++@OO++o.@3333333552",
"2553353333@X+@@@+++o.@3333333552",
"255553353@X++O@++++oo.@333335522",
"255533333@.+++++++ooo.@335333522",
"255533333@.+++++++ooo.@333333552",
"255333333@.++++++oooo.@333335522",
"255533333@.+++++ooooo.@333335522",
"2255533333@.+++ooooo.@3533355552",
"22553333533@........@33333335552",
"255553333333@@@@@@@@333333355552",
"25553333333333333333333333335522",
"22553333333333533333333333335522",
"22555533333333333333353353355522",
"42555333353333333333333333355224",
"42255533533353353333333333555224",
"42255555555355555333533555555224",
"44225555555555555555555555552244",
"44422222255522255555225522222444",
"44444422222222222222222222444444"
};
