/* XPM */
static char *result[] = {
/* columns rows colors chars-per-pixel */
"64 64 10 1 ",
"2 c #78A158",
"5 c #A4C263",
"3 c #C0D470",
"4 c #9BD4C3",
". c #90625D",
"X c #AA7959",
"o c #F5E6A0",
"O c #FAF0B0",
"+ c #FFFACD",
"@ c #90625D",
/* pixels */
"4444444444442222222222222222222222222222222222222222444444444444",
"4444444444442222222222222222222222222222222222222222444444444444",
"4444442222222222225555555522225555555555555555222222222222444444",
"4444442222222222225555555522225555555555555555222222222222444444",
"4444222255555555555555555555555555555555555555555555552222224444",
"4444222255555555555555555555555555555555555555555555552222224444",
"4422225555555555555555555555555533333333555555555555555555222244",
"4422225555555555555555555555555533333333555555555555555555222244",
"4422555555555555335533335533333333333333553355555555555555222244",
"4422555555555555335533335533333333333333553355555555555555222244",
"4422225555555533333333333333335533333333333333335533555555222244",
"4422225555555533333333333333335533333333333333335533555555222244",
"2222225555553333333333333333333333333333333333333333335555552222",
"2222225555553333333333333333333333333333333333333333335555552222",
"2222555555333333333333333333333333333333333333333333333355552222",
"2222555555333333333333333333333333333333333333333333333355552222",
"2222555555553333333333333333333333333333553333333333333355555522",
"2222555555553333333333333333333333333333553333333333333355555522",
"2255555533333333333333333333@@@@@@@@3333333333333355333355555522",
"2255555533333333333333333333@@@@@@@@3333333333333355333355555522",
"22555555333333333333333333@@XXXXXXXX@@33333333333333333333552222",
"22555555333333333333333333@@XXXXXXXX@@33333333333333333333552222",
"225555553355333333333333@@XX++++++++XX@@333333333333333355552222",
"225555553355333333333333@@XX++++++++XX@@333333333333333355552222",
"2255553333333333333333@@XX++++OO@@++++..@@3333333333333333555522",
"2255553333333333333333@@XX++++OO@@++++..@@3333333333333333555522",
"22555533333333333333@@XX++++@@OOOO++++oo..@@33333333333333555522",
"22555533333333333333@@XX++++@@OOOO++++oo..@@33333333333333555522",
"22555533335533333333@@XX++@@@@@@++++++oo..@@33333333333333555522",
"22555533335533333333@@XX++@@@@@@++++++oo..@@33333333333333555522",
"225555555533335533@@XX++++OO@@++++++++oooo..@@333333333355552222",
"225555555533335533@@XX++++OO@@++++++++oooo..@@333333333355552222",
"225555553333333333@@..++++++++++++++oooooo..@@333355333333552222",
"225555553333333333@@..++++++++++++++oooooo..@@333355333333552222",
"225555553333333333@@..++++++++++++++oooooo..@@333333333333555522",
"225555553333333333@@..++++++++++++++oooooo..@@333333333333555522",
"225555333333333333@@..++++++++++++oooooooo..@@333333333355552222",
"225555333333333333@@..++++++++++++oooooooo..@@333333333355552222",
"225555553333333333@@..++++++++++oooooooooo..@@333333333355552222",
"225555553333333333@@..++++++++++oooooooooo..@@333333333355552222",
"22225555553333333333@@..++++++oooooooooo..@@33553333335555555522",
"22225555553333333333@@..++++++oooooooooo..@@33553333335555555522",
"2222555533333333553333@@................@@3333333333333355555522",
"2222555533333333553333@@................@@3333333333333355555522",
"225555555533333333333333@@@@@@@@@@@@@@@@333333333333335555555522",
"225555555533333333333333@@@@@@@@@@@@@@@@333333333333335555555522",
"2255555533333333333333333333333333333333333333333333333355552222",
"2255555533333333333333333333333333333333333333333333333355552222",
"2222555533333333333333333333553333333333333333333333333355552222",
"2222555533333333333333333333553333333333333333333333333355552222",
"2222555555553333333333333333333333333333335533335533335555552222",
"2222555555553333333333333333333333333333335533335533335555552222",
"4422555555333333335533333333333333333333333333333333335555222244",
"4422555555333333335533333333333333333333333333333333335555222244",
"4422225555553333553333335533335533333333333333333333555555222244",
"4422225555553333553333335533335533333333333333333333555555222244",
"4422225555555555555555335555555555333333553333555555555555222244",
"4422225555555555555555335555555555333333553333555555555555222244",
"4444222255555555555555555555555555555555555555555555555522224444",
"4444222255555555555555555555555555555555555555555555555522224444",
"4444442222222222225555552222225555555555222255552222222222444444",
"4444442222222222225555552222225555555555222255552222222222444444",
"4444444444442222222222222222222222222222222222222222444444444444",
"4444444444442222222222222222222222222222222222222222444444444444"
};

