/* XPM */
static char *result[] = {
/* columns rows colors chars-per-pixel */
"32 32 12 1 ",
"  c #C0D470",
". c #EAE178",
"X c #5C4E92",
"o c #766DAA",
"O c #E8B5AC",
"+ c #DDD5DE",
"@ c #F3D8C5",
"# c #F3F2C0",
"2 c #78A158",
"5 c #A4C263",
"3 c #C0D470",
"4 c #9BD4C3",
/* pixels */
"44444422222222222222222222444444",
"44422222255552255555555222222444",
"44225555555555555555555555522244",
"42255555555555553333555555555224",
"42555555353353333333535555555224",
"42255553333333353333333353555224",
"22255533333333333333333333355522",
"22555333333333333333333333335522",
"2255553333XXXX33333XXX3333335552",
"255533333X###XXXXXX###X335335552",
"255533333XOO##++++##OOX333333522",
"255535333XOO##++++##OOX333335522",
"2553333333X###++++###X3333333552",
"255333333XX##########XX333333552",
"2553353333X#X######X#X3333333552",
"255553353XX##########XX333335522",
"2555333333X@@######@@X3335333522",
"25553333333XXooooooXX33333333552",
"255333333333Xoo.#ooX333333335522",
"25553333333X+##..##+X33333335522",
"22555333333X+######+X33533355552",
"225533335333X######X333333335552",
"255553333333X++XX++X333333355552",
"2555333333333XX33XX3333333335522",
"22553333333333533333333333335522",
"22555533333333333333353353355522",
"42555333353333333333333333355224",
"42255533533353353333333333555224",
"42255555555355555333533555555224",
"44225555555555555555555555552244",
"44422222255522255555225522222444",
"44444422222222222222222222444444"
};