/* XPM */
static char *result[] = {
/* columns rows colors chars-per-pixel */
"32 32 4 1 ",
". c #78A158",
"X c #A4C263",
"o c #C0D470",
"# c #9BD4C3",
/* pixels */
"######....................######",
"###......XXXX..XXXXXXXX......###",
"##..XXXXXXXXXXXXXXXXXXXXXXX...##",
"#..XXXXXXXXXXXXXooooXXXXXXXXX..#",
"#.XXXXXXoXooXoooooooXoXXXXXXX..#",
"#..XXXXooooooooXooooooooXoXXX..#",
"...XXXoooooooooooooooooooooXXX..",
"..XXXoooooooooooooooooooooooXX..",
"..XXXXooooooooooooooXoooooooXXX.",
".XXXoooooooooooooooooooooXooXXX.",
".XXXoooooooooooooooooooooooooX..",
".XXXoXooooooooooooooooooooooXX..",
".XXooooooooooooooooooooooooooXX.",
".XXooooooooooooooooooooooooooXX.",
".XXooXoooooooooooooooooooooooXX.",
".XXXXooXooooooooooooooooooooXX..",
".XXXoooooooooooooooooooooXoooX..",
".XXXoooooooooooooooooooooooooXX.",
".XXoooooooooooooooooooooooooXX..",
".XXXooooooooooooooooooooooooXX..",
"..XXXooooooooooooooooooXoooXXXX.",
"..XXooooXoooooooooooooooooooXXX.",
".XXXXooooooooooooooooooooooXXXX.",
".XXXooooooooooooooooooooooooXX..",
"..XXooooooooooXoooooooooooooXX..",
"..XXXXoooooooooooooooXooXooXXX..",
"#.XXXooooXoooooooooooooooooXX..#",
"#..XXXooXoooXooXooooooooooXXX..#",
"#..XXXXXXXXoXXXXXoooXooXXXXXX..#",
"##..XXXXXXXXXXXXXXXXXXXXXXXX..##",
"###......XXX...XXXXX..XX.....###",
"######....................######"
};
