/* XPM */
static char *result[] = {
/* columns rows colors chars-per-pixel */
"64 64 4 1 ",
". c #78A158",
"X c #A4C263",
"o c #C0D470",
"# c #9BD4C3",
/* pixels */
"############........................................############",
"############........................................############",
"######............XXXXXXXX....XXXXXXXXXXXXXXXX............######",
"######............XXXXXXXX....XXXXXXXXXXXXXXXX............######",
"####....XXXXXXXXXXXXXXXXXXXXXXXXXXXXXXXXXXXXXXXXXXXXXX......####",
"####....XXXXXXXXXXXXXXXXXXXXXXXXXXXXXXXXXXXXXXXXXXXXXX......####",
"##....XXXXXXXXXXXXXXXXXXXXXXXXXXooooooooXXXXXXXXXXXXXXXXXX....##",
"##....XXXXXXXXXXXXXXXXXXXXXXXXXXooooooooXXXXXXXXXXXXXXXXXX....##",
"##..XXXXXXXXXXXXooXXooooXXooooooooooooooXXooXXXXXXXXXXXXXX....##",
"##..XXXXXXXXXXXXooXXooooXXooooooooooooooXXooXXXXXXXXXXXXXX....##",
"##....XXXXXXXXooooooooooooooooXXooooooooooooooooXXooXXXXXX....##",
"##....XXXXXXXXooooooooooooooooXXooooooooooooooooXXooXXXXXX....##",
"......XXXXXXooooooooooooooooooooooooooooooooooooooooooXXXXXX....",
"......XXXXXXooooooooooooooooooooooooooooooooooooooooooXXXXXX....",
"....XXXXXXooooooooooooooooooooooooooooooooooooooooooooooXXXX....",
"....XXXXXXooooooooooooooooooooooooooooooooooooooooooooooXXXX....",
"....XXXXXXXXooooooooooooooooooooooooooooXXooooooooooooooXXXXXX..",
"....XXXXXXXXooooooooooooooooooooooooooooXXooooooooooooooXXXXXX..",
"..XXXXXXooooooooooooooooooooooooooooooooooooooooooXXooooXXXXXX..",
"..XXXXXXooooooooooooooooooooooooooooooooooooooooooXXooooXXXXXX..",
"..XXXXXXooooooooooooooooooooooooooooooooooooooooooooooooooXX....",
"..XXXXXXooooooooooooooooooooooooooooooooooooooooooooooooooXX....",
"..XXXXXXooXXooooooooooooooooooooooooooooooooooooooooooooXXXX....",
"..XXXXXXooXXooooooooooooooooooooooooooooooooooooooooooooXXXX....",
"..XXXXooooooooooooooooooooooooooooooooooooooooooooooooooooXXXX..",
"..XXXXooooooooooooooooooooooooooooooooooooooooooooooooooooXXXX..",
"..XXXXooooooooooooooooooooooooooooooooooooooooooooooooooooXXXX..",
"..XXXXooooooooooooooooooooooooooooooooooooooooooooooooooooXXXX..",
"..XXXXooooXXooooooooooooooooooooooooooooooooooooooooooooooXXXX..",
"..XXXXooooXXooooooooooooooooooooooooooooooooooooooooooooooXXXX..",
"..XXXXXXXXooooXXooooooooooooooooooooooooooooooooooooooooXXXX....",
"..XXXXXXXXooooXXooooooooooooooooooooooooooooooooooooooooXXXX....",
"..XXXXXXooooooooooooooooooooooooooooooooooooooooooXXooooooXX....",
"..XXXXXXooooooooooooooooooooooooooooooooooooooooooXXooooooXX....",
"..XXXXXXooooooooooooooooooooooooooooooooooooooooooooooooooXXXX..",
"..XXXXXXooooooooooooooooooooooooooooooooooooooooooooooooooXXXX..",
"..XXXXooooooooooooooooooooooooooooooooooooooooooooooooooXXXX....",
"..XXXXooooooooooooooooooooooooooooooooooooooooooooooooooXXXX....",
"..XXXXXXooooooooooooooooooooooooooooooooooooooooooooooooXXXX....",
"..XXXXXXooooooooooooooooooooooooooooooooooooooooooooooooXXXX....",
"....XXXXXXooooooooooooooooooooooooooooooooooooXXooooooXXXXXXXX..",
"....XXXXXXooooooooooooooooooooooooooooooooooooXXooooooXXXXXXXX..",
"....XXXXooooooooXXooooooooooooooooooooooooooooooooooooooXXXXXX..",
"....XXXXooooooooXXooooooooooooooooooooooooooooooooooooooXXXXXX..",
"..XXXXXXXXooooooooooooooooooooooooooooooooooooooooooooXXXXXXXX..",
"..XXXXXXXXooooooooooooooooooooooooooooooooooooooooooooXXXXXXXX..",
"..XXXXXXooooooooooooooooooooooooooooooooooooooooooooooooXXXX....",
"..XXXXXXooooooooooooooooooooooooooooooooooooooooooooooooXXXX....",
"....XXXXooooooooooooooooooooXXooooooooooooooooooooooooooXXXX....",
"....XXXXooooooooooooooooooooXXooooooooooooooooooooooooooXXXX....",
"....XXXXXXXXooooooooooooooooooooooooooooooXXooooXXooooXXXXXX....",
"....XXXXXXXXooooooooooooooooooooooooooooooXXooooXXooooXXXXXX....",
"##..XXXXXXooooooooXXooooooooooooooooooooooooooooooooooXXXX....##",
"##..XXXXXXooooooooXXooooooooooooooooooooooooooooooooooXXXX....##",
"##....XXXXXXooooXXooooooXXooooXXooooooooooooooooooooXXXXXX....##",
"##....XXXXXXooooXXooooooXXooooXXooooooooooooooooooooXXXXXX....##",
"##....XXXXXXXXXXXXXXXXooXXXXXXXXXXooooooXXooooXXXXXXXXXXXX....##",
"##....XXXXXXXXXXXXXXXXooXXXXXXXXXXooooooXXooooXXXXXXXXXXXX....##",
"####....XXXXXXXXXXXXXXXXXXXXXXXXXXXXXXXXXXXXXXXXXXXXXXXX....####",
"####....XXXXXXXXXXXXXXXXXXXXXXXXXXXXXXXXXXXXXXXXXXXXXXXX....####",
"######............XXXXXX......XXXXXXXXXX....XXXX..........######",
"######............XXXXXX......XXXXXXXXXX....XXXX..........######",
"############........................................############",
"############........................................############"
};
