/* XPM */
static char *_e457d68ebd444d5dbebe9a9d6d6efbfhnl9GygmoPKhK3i5[] = {
/* columns rows colors chars-per-pixel */
"64 64 7 1 ",
". c #78A158",
"X c #A4C263",
"o c #C0D470",
"O c #D2E077",
"+ c #EAE178",
"@ c #E8EEAA",
"# c #9BD4C3",
/* pixels */
"######....................................................######",
"###......XXXXXXXXX...XXXXX..XXXXXXXXX...XXXXX..XXXXXXXX......###",
"##..XXXXXXXXXXXXXXXXXXXXXXXXXXXXXXXXXXXXXXXXXXXXXXXXXXXXXXX...##",
"#..XXXXXXXXXXXXoXXXXXXXoXXXXXoooXXoXXXXXXXoXXXXXooooXXXXXXXXX..#",
"#.XXXXXXoXoooooooooXooXooXooooooooooooXooXooXoooooooXoXXXXXXX..#",
"#..XXXXooooXXooooXooooooooooXoooooooXooooooooooXooooooooXoXXX..#",
"...XXXooooooooooooooooooXooooooooooooooooooXoooooooooooooooXXX..",
"..XXXoooooooooooooooooooooooooooooooooooooooooooooooooooooooXX..",
"..XXXXooooooooooooooooooooooooooooooooooooooooooooooXoooooooXXX.",
".XXXoooooooooooooooooooooooooooooooooooooooooooooooooooooXooXXX.",
".XXXoooooooXXooooooooooooooooooooooooooooooooooooooooooooooooX..",
".XXXoXooooooooooooooooooooooooooooooooooooooooooooooooooooooXX..",
".XXooooooooooooooooooooooooooooooooooooooooooooooooooooooooooXX.",
".XXooooooooooooooooooooooooooooooooooooooooooooooooooooooooooXX.",
".XXXoooooooooooooooooooooooooooooooooooooooooooooooooooooooooXX.",
".XXooXoooooooooooooooooooooooooooooooooooooooooooooooooooooooXX.",
".XXooooooooooooooooooooooooooooooooooooooooooooooooooooXooooXXX.",
"..XXoooooXoooooooooooooooooooooooooooooooooooooooooooooooooXXX..",
"..XXXoooooooooooooooooooooooooooooooooooooooooooooooooooooooXX..",
"..XXoooooooooooooooooooooooooooooooooooooooooooooooooooooooXXX..",
".XXXooXooooooooooooooooooooooooooooooooooooooooooooooooooooXXXX.",
".XXoooooooooooooooooooooooooooooooooooooooooooooooooooooooooXXX.",
".XXooooooooooooooooooooooooooooooooooooooooooooooooooooooXooXXX.",
".XXXooooooooooooooooooooooooooooooooooooooooooooooooooooooooXXX.",
"..XXooooooooooooooooooooooooooooooooooooooooooooooooooooooooXXX.",
"..XXooooooooooooooooooooooooooooooooooooooooooooooooooXooooXXXX.",
".XXXXooXooooooooooooooooooooooooooooooooooooooooooooooooooooXX..",
".XXXoooooooooooooooooooooooooooooooooooooooooooooooooooooXoooX..",
".XXooooooooooooooooooooooooooooooooooooooooooooooooooooooooooXX.",
".XXXoooooooooooooooooooooooooooooooooooooooooooooooooooooooooXX.",
".XXoooooooooooooooooooooooooooooooooooooooooooooooooooooooooXX..",
".XXXoXooooooooooooooooooooooooooooooooooooooooooooooooooooooXX..",
".XXooooooooooooooooooooooooooooooooooooooooooooooooooooooooooXX.",
".XXooooooooooooooooooooooooooooooooooooooooooooooooooooooooooXX.",
".XXXoooooooooooooooooooooooooooooooooooooooooooooooooooooooooXX.",
".XXooXoooooooooooooooooooooooooooooooooooooooooooooooooooooooXX.",
".XXooooooooooooooooooooooooooooooooooooooooooooooooooooXooooXXX.",
"..XXoooooXoooooooooooooooooooooooooooooooooooooooooooooooooXXX..",
"..XXXoooooooooooooooooooooooooooooooooooooooooooooooooooooooXX..",
"..XXoooooooooooooooooooooooooooooooooooooooooooooooooooooooXXX..",
".XXXooXooooooooooooooooooooooooooooooooooooooooooooooooooooXXXX.",
".XXoooooooooooooooooooooooooooooooooooooooooooooooooooooooooXXX.",
".XXooooooooooooooooooooooooooooooooooooooooooooooooooooooXooXXX.",
".XXXooooooooooooooooooooooooooooooooooooooooooooooooooooooooXXX.",
"..XXooooooooooooooooooooooooooooooooooooooooooooooooooooooooXXX.",
"..XXooooooooooooooooooooooooooooooooooooooooooooooooooXooooXXXX.",
".XXXXooXooooooooooooooooooooooooooooooooooooooooooooooooooooXX..",
".XXXoooooooooooooooooooooooooooooooooooooooooooooooooooooXoooX..",
".XXooooooooooooooooooooooooooooooooooooooooooooooooooooooooooXX.",
".XXXoooooooooooooooooooooooooooooooooooooooooooooooooooooooooXX.",
".XXoooooooooooooooooooooooooooooooooooooooooooooooooooooooooXX..",
".XXXooooooooooooooooooooooooooooooooooooooooooooooooooooooooXX..",
"..XXXooooooooooooooooooooooooooooooooooooooooooooooooooXoooXXXX.",
"..XXooooXoooooooooooooooooooooooooooooooooooooooooooooooooooXXX.",
".XXXXooooooooooooooooooooooooooooooooooooooooooooooooooooooXXXX.",
".XXXoooooooXXoooooooooooooooooooooooooooooooooooooooooooooooXX..",
"..XXoooooooooooooXoooooooooXooooooooXoooooooooXoooooooooooooXX..",
"..XXXXoooooooooooooooooooooooooooooooooooooooooooooooXooXooXXX..",
"#.XXXooooXoooooooooooXooooooooooooooooooXooooooooooooooooooXX..#",
"#..XXXooXoooooooooXooooooXooXooooooooXooooooXooXooooooooooXXX..#",
"#..XXXXXXXXooXoooXXXXoooXXXXXXooXoooXXXXoooXXXXXXoooXooXXXXXX..#",
"##..XXXXXXXXXXXXXXXXXXXXXXXXXXXXXXXXXXXXXXXXXXXXXXXXXXXXXXXX..##",
"###......X...XXXX...XXXXX...XXXXXXXX...XXXXX...XXXXX..XX.....###",
"######....................................................######"
};