/* XPM */
static char *result[] = {
/* columns rows colors chars-per-pixel */
"64 64 12 1 ",
"  c None",
". c #EAE178",
"X c #5C4E92",
"o c #766DAA",
"O c #E8B5AC",
"+ c #DDD5DE",
"@ c #F3D8C5",
"# c #F3F2C0",
"2 c #78A158",
"5 c #A4C263",
"3 c #C0D470",
"4 c #9BD4C3",
/* pixels */
"4444444444442222222222222222222222222222222222222222444444444444",
"4444444444442222222222222222222222222222222222222222444444444444",
"4444442222222222225555555522225555555555555555222222222222444444",
"4444442222222222225555555522225555555555555555222222222222444444",
"4444222255555555555555555555555555555555555555555555552222224444",
"4444222255555555555555555555555555555555555555555555552222224444",
"4422225555555555555555555555555533333333555555555555555555222244",
"4422225555555555555555555555555533333333555555555555555555222244",
"4422555555555555335533335533333333333333553355555555555555222244",
"4422555555555555335533335533333333333333553355555555555555222244",
"4422225555555533333333333333335533333333333333335533555555222244",
"4422225555555533333333333333335533333333333333335533555555222244",
"4422225555555533333333333333335533333333333333335533555555222244",
"2222225555553333333333333333333333333333333333333333335555552222",
"22225555553333333333333333XXXXXX33333333333333333333333355552222",
"22225555553333333333333333XXXXXX33333333333333333333333355552222",
"222255555555333333333333XX######XXXXXX33333333333333333355555522",
"222255555555333333333333XX######XXXXXX33333333333333333355555522",
"2255555533333333333333XX##OOOO########XX333333333355333355555522",
"2255555533333333333333XX##OOOO########XX333333333355333355555522",
"2255555533333333333333XX##OOOO########XX333333333333333333552222",
"2255555533333333333333XX##OOOO########XX333333333333333333552222",
"225555553355333333333333XX############XX333333333333333355552222",
"225555553355333333333333XX############XX333333333333333355552222",
"2255553333333333333333XXXX############XXXX3333333333333333555522",
"2255553333333333333333XXXX############XXXX3333333333333333555522",
"225555333333333333333333XX########XX####XX3333333333333333555522",
"225555333333333333333333XX########XX####XX3333333333333333555522",
"2255553333553333333333XXXX##############XX3333333333333333555522",
"2255553333553333333333XXXX##############XX3333333333333333555522",
"225555555533335533333333XX####@@@@######XX3333333333333355552222",
"225555555533335533333333XX####@@@@######XX3333333333333355552222",
"22555555333333333333333333XXooooooooooXX333333333355333333552222",
"22555555333333333333333333XXooooooooooXX333333333355333333552222",
"225555553333333333333333XX++##oooooooo..333333333333333333555522",
"225555553333333333333333XX++##oooooooo..333333333333333333555522",
"225555333333333333333333XX++########XX..333333333333333355552222",
"225555333333333333333333XX++########XX..333333333333333355552222",
"22555555333333333333333333XX########XX33333333333333333355552222",
"22555555333333333333333333XX########XX33333333333333333355552222",
"22225555553333333333333333XX########XX33333333553333335555555522",
"22225555553333333333333333XX########XX33333333553333335555555522",
"2222555533333333553333333333XX++++XX3333333333333333333355555522",
"2222555533333333553333333333XX++++XX3333333333333333333355555522",
"225555555533333333333333333333XXXX333333333333333333335555555522",
"225555555533333333333333333333XXXX333333333333333333335555555522",
"2255555533333333333333333333333333333333333333333333333355552222",
"2255555533333333333333333333333333333333333333333333333355552222",
"2222555533333333333333333333553333333333333333333333333355552222",
"2222555533333333333333333333553333333333333333333333333355552222",
"2222555555553333333333333333333333333333335533335533335555552222",
"2222555555553333333333333333333333333333335533335533335555552222",
"4422555555333333335533333333333333333333333333333333335555222244",
"4422555555333333335533333333333333333333333333333333335555222244",
"4422225555553333553333335533335533333333333333333333555555222244",
"4422225555553333553333335533335533333333333333333333555555222244",
"4422225555555555555555335555555555333333553333555555555555222244",
"4422225555555555555555335555555555333333553333555555555555222244",
"4444222255555555555555555555555555555555555555555555555522224444",
"4444222255555555555555555555555555555555555555555555555522224444",
"4444442222222222225555552222225555555555222255552222222222444444",
"4444442222222222225555552222225555555555222255552222222222444444",
"4444444444442222222222222222222222222222222222222222444444444444",
"4444444444442222222222222222222222222222222222222222444444444444"
};
